<!-- Generated by IcoMoon.io -->
<svg version="1.1" xmlns="http://www.w3.org/2000/svg" width="32" height="32" viewBox="0 0 32 32">
<title>arrow-hero-default</title>
<path fill="#fcfcfc" d="M31.771 16.552c0.141-0.141 0.229-0.336 0.229-0.552s-0.087-0.411-0.229-0.552l-4.967-4.967c-0.142-0.147-0.341-0.238-0.561-0.238-0.431 0-0.78 0.349-0.78 0.78 0 0.22 0.091 0.419 0.238 0.561l4.415 4.415-4.415 4.415c-0.136 0.14-0.219 0.331-0.219 0.542 0 0.431 0.349 0.78 0.78 0.78 0.211 0 0.402-0.084 0.542-0.219l4.967-4.967zM0 16.78h31.22v-1.561h-31.22v1.561z"></path>
</svg>
