<!-- Generated by IcoMoon.io -->
<svg version="1.1" xmlns="http://www.w3.org/2000/svg" width="32" height="32" viewBox="0 0 32 32">
<title>arrow-focus</title>
<path d="M31.422 16.652c0.167-0.167 0.27-0.398 0.27-0.652s-0.103-0.485-0.27-0.652v0l-5.874-5.875c-0.167-0.167-0.398-0.27-0.653-0.27-0.51 0-0.923 0.413-0.923 0.923 0 0.255 0.103 0.486 0.27 0.653l5.223 5.222-5.222 5.222c-0.167 0.167-0.27 0.398-0.27 0.653 0 0.51 0.413 0.923 0.923 0.923 0.255 0 0.486-0.103 0.653-0.27l5.874-5.874zM0 16.923h30.769v-1.846h-30.769v1.846z"></path>
</svg>
