<!-- Generated by IcoMoon.io -->
<svg version="1.1" xmlns="http://www.w3.org/2000/svg" width="32" height="32" viewBox="0 0 32 32">
<title>arrow-products</title>
<path d="M31.483 16.454c0.138-0.138 0.223-0.328 0.223-0.539s-0.085-0.401-0.223-0.539v0l-4.849-4.849c-0.138-0.138-0.328-0.223-0.539-0.223-0.421 0-0.762 0.341-0.762 0.762 0 0.211 0.085 0.401 0.223 0.539l4.309 4.309-4.31 4.31c-0.138 0.138-0.223 0.329-0.223 0.539 0 0.421 0.341 0.762 0.762 0.762 0.21 0 0.401-0.085 0.539-0.223l4.849-4.849zM0.29 16.677h30.655v-1.524h-30.655v1.524z"></path>
</svg>
