<!-- Generated by IcoMoon.io -->
<svg version="1.1" xmlns="http://www.w3.org/2000/svg" width="32" height="32" viewBox="0 0 32 32">
<title>arrow-hover</title>
<path d="M31.816 16.444c0.113-0.114 0.184-0.27 0.184-0.444s-0.070-0.33-0.184-0.444l-3.993-3.993c-0.114-0.118-0.274-0.192-0.451-0.192-0.347 0-0.627 0.281-0.627 0.627 0 0.177 0.073 0.337 0.191 0.451l0 0 3.549 3.55-3.55 3.55c-0.109 0.113-0.176 0.266-0.176 0.436 0 0.347 0.281 0.627 0.627 0.627 0.169 0 0.323-0.067 0.436-0.176l-0 0 3.993-3.993zM0 16.627h31.373v-1.255h-31.373v1.255z"></path>
</svg>
