<!-- Generated by IcoMoon.io -->
<svg version="1.1" xmlns="http://www.w3.org/2000/svg" width="32" height="32" viewBox="0 0 32 32">
<title>github-focus</title>
<path fill="#f8d24e" d="M31.35 15.962c0 8.457-6.856 15.313-15.313 15.313s-15.313-6.856-15.313-15.313c0-8.457 6.856-15.313 15.313-15.313s15.313 6.856 15.313 15.313z"></path>
<path fill="#fcfcfc" d="M15.602 8.165c-4.523 0-8.235 3.712-8.235 8.235 0 3.86 2.708 7.366 6.305 8.235v-2.725c-0.356 0.078-0.684 0.080-1.047-0.026-0.486-0.144-0.882-0.468-1.176-0.962-0.186-0.315-0.518-0.658-0.864-0.632l-0.085-0.962c0.748-0.064 1.395 0.456 1.779 1.101 0.17 0.287 0.367 0.456 0.619 0.53 0.243 0.072 0.505 0.038 0.81-0.070 0.077-0.61 0.356-0.838 0.568-1.16v-0.001c-2.146-0.32-3-1.458-3.339-2.356-0.45-1.193-0.208-2.682 0.586-3.624 0.016-0.018 0.043-0.066 0.032-0.1-0.364-1.102 0.080-2.012 0.096-2.109 0.421 0.124 0.49-0.126 1.828 0.688l0.232 0.139c0.096 0.058 0.066 0.024 0.162 0.017 0.516-0.146 1.11-0.234 1.723-0.243l0.005-0c0.586 0.008 1.17 0.092 1.752 0.25l0.075 0.008c-0.006-0.002 0.021-0.006 0.066-0.032 1.672-1.013 1.612-0.682 2.060-0.827 0.016 0.096 0.454 1.022 0.094 2.11-0.049 0.15 1.45 1.522 0.619 3.723-0.34 0.899-1.194 2.037-3.339 2.357 0.274 0.419 0.605 0.642 0.603 1.507v3.401c3.597-0.869 6.306-4.376 6.306-8.235 0-4.523-3.712-8.235-8.235-8.235z"></path>
</svg>
