<!-- Generated by IcoMoon.io -->
<svg version="1.1" xmlns="http://www.w3.org/2000/svg" width="32" height="32" viewBox="0 0 32 32">
<title>github-hover</title>
<path fill="#f8d24e" d="M32 16c0 8.837-7.163 16-16 16s-16-7.163-16-16c0-8.837 7.163-16 16-16s16 7.163 16 16z"></path>
<path fill="#fcfcfc" d="M16.002 6.588c-5.17 0-9.412 4.242-9.412 9.412 0 4.411 3.095 8.418 7.206 9.412v-3.114c-0.408 0.089-0.782 0.092-1.197-0.030-0.556-0.165-1.008-0.535-1.344-1.1-0.214-0.361-0.593-0.752-0.988-0.723l-0.097-1.1c0.855-0.072 1.595 0.522 2.034 1.26 0.195 0.327 0.42 0.52 0.707 0.605 0.279 0.082 0.578 0.042 0.926-0.080 0.088-0.698 0.407-0.96 0.649-1.327-2.452-0.366-3.429-1.667-3.817-2.693-0.513-1.363-0.238-3.066 0.671-4.142 0.018-0.021 0.050-0.076 0.037-0.114-0.417-1.259 0.091-2.3 0.11-2.41 0.48 0.142 0.559-0.143 2.088 0.786l0.265 0.159c0.11 0.066 0.076 0.028 0.186 0.020 0.59-0.167 1.269-0.267 1.97-0.278l0.006-0c0.717 0.011 1.404 0.114 2.058 0.299l-0.056-0.014 0.085 0.008c-0.007 0 0.024-0.005 0.075-0.036 1.911-1.157 1.842-0.779 2.355-0.945 0.018 0.11 0.52 1.168 0.107 2.41-0.056 0.172 1.657 1.74 0.708 4.256-0.388 1.027-1.365 2.328-3.816 2.693v0.001c0.314 0.479 0.691 0.734 0.69 1.722v3.887c4.11-0.994 7.205-5 7.205-9.412 0-5.17-4.242-9.412-9.411-9.412z"></path>
</svg>
