<!-- Generated by IcoMoon.io -->
<svg version="1.1" xmlns="http://www.w3.org/2000/svg" width="32" height="32" viewBox="0 0 32 32">
<title>logo-tab</title>
<path fill="#f8d24e" d="M16.324 14.283c1.533-4.111-1.641-6.36-3.745-7.84-0.402-0.301-0.804-0.584-1.13-0.842-0.569-0.476-0.999-1.103-1.228-1.818l-0.008-0.028c-0.112-0.347-0.177-0.745-0.177-1.159 0-0.375 0.053-0.738 0.152-1.081l-0.007 0.027c0.010-0.034 0.015-0.073 0.015-0.113 0-0.125-0.054-0.237-0.14-0.315l-0-0c-0.077-0.071-0.181-0.114-0.294-0.114-0.053 0-0.104 0.010-0.151 0.027l0.003-0.001c-0.708 0.277-1.367 0.665-1.951 1.149-0.555 0.425-1.003 0.961-1.316 1.577l-0.012 0.026c-0.3 0.588-0.476 1.282-0.478 2.017v0.001c-0.398 0.312-0.741 0.666-1.032 1.062l-0.010 0.015c-0.482 0.644-0.772 1.456-0.772 2.336 0 0.066 0.002 0.132 0.005 0.197l-0-0.009c-0.629 0.571-1.109 1.295-1.383 2.113l-0.010 0.035c-0.155 0.458-0.244 0.986-0.244 1.534 0 0.358 0.038 0.708 0.111 1.045l-0.006-0.033c-0.256 0.153-0.455 0.385-0.565 0.66-0.060 0.147-0.096 0.318-0.096 0.496 0 0.131 0.019 0.258 0.054 0.377l-0.002-0.009c0.081 0.285 0.255 0.535 0.494 0.713s0.531 0.273 0.831 0.271h0.028v2.337c0 0.237 0.095 0.465 0.265 0.633s0.4 0.262 0.64 0.262h0.704l1.147 9.819c0.023 0.219 0.128 0.421 0.293 0.567 0.167 0.147 0.381 0.228 0.603 0.228h4.771c0.223-0.001 0.437-0.082 0.603-0.229s0.272-0.348 0.297-0.567l1.147-9.819h0.704c0.24 0 0.47-0.094 0.64-0.262s0.265-0.395 0.265-0.633v-2.337h0.029c0 0 0 0 0 0 0.378 0 0.72-0.152 0.969-0.398l-0 0c0.257-0.253 0.402-0.599 0.402-0.958 0-0.005 0-0.010 0-0.016 0-0.373-0.154-0.71-0.402-0.95l-0-0-0.012 0.005zM5.999 6.825c0.58 2.151 2.816 2.997 4.855 3.753 0.065 0.040 0.144 0.064 0.229 0.064 0.185 0 0.343-0.113 0.409-0.274l0.001-0.003c0.019-0.046 0.030-0.1 0.030-0.156 0-0.145-0.072-0.273-0.182-0.351l-0.001-0.001c-0.050-0.036-0.109-0.062-0.173-0.074l-0.003-0c-2.196-0.823-4.267-1.59-4.425-3.789-0.004-0.066-0.007-0.142-0.007-0.219 0-0.559 0.126-1.088 0.351-1.561l-0.009 0.022c0.266-0.563 0.651-1.031 1.124-1.387l0.009-0.007c0.288-0.238 0.609-0.459 0.949-0.651l0.033-0.017c-0.011 0.124-0.017 0.268-0.017 0.413s0.006 0.29 0.018 0.432l-0.001-0.019c0.047 0.63 0.221 1.244 0.513 1.807 0.304 0.577 0.701 1.064 1.177 1.459l0.008 0.006c0.333 0.282 0.748 0.572 1.207 0.882 1.058 0.751 2.261 1.59 3.025 2.727 0.477 0.673 0.763 1.511 0.763 2.415 0 0.584-0.119 1.141-0.335 1.647l0.010-0.027h-1.778c-3.664 0.001-7.875-1.001-8.708-3.807-0.078-0.263-0.123-0.565-0.123-0.877 0-0.317 0.046-0.623 0.132-0.911l-0.006 0.023c0.178-0.598 0.507-1.105 0.942-1.495l0.003-0.003-0.020-0.020zM9.297 20.377l1.343 1.327-1.343 1.328-1.343-1.336 1.343-1.32zM12.379 23.864l-1.111 1.097-1.343-1.328 1.343-1.323 1.167 1.149-0.056 0.405zM9.297 26.909l-1.344-1.329 1.343-1.328 1.343 1.328-1.343 1.328zM8.682 23.641l-1.343 1.328-1.119-1.105-0.048-0.397 1.167-1.149 1.343 1.323zM6.719 25.581l-0.269 0.267-0.068-0.605 0.337 0.338zM6.579 26.941l0.76-0.752 1.476 1.471c0.007 0.029 0.017 0.059 0.028 0.087h-2.172l-0.093-0.807zM11.26 26.189l0.76 0.751-0.092 0.795h-2.233l1.565-1.547zM12.145 25.847l-0.27-0.267 0.342-0.338-0.072 0.605zM12.547 22.373l-0.672-0.676 0.853-0.843-0.181 1.519zM11.256 21.093l-1.275-1.256h2.55l-1.275 1.256zM7.334 21.093l-1.274-1.256h2.55l-1.275 1.256zM11.679 29.584h-4.767c-0.015-0.002-0.026-0.013-0.028-0.028v-0l-0.113-0.954h5.053l-0.109 0.954c-0.002 0.016-0.015 0.028-0.032 0.028-0 0-0 0-0 0v0h-0.004zM15.367 15.733h-1.4c-0.012-0.001-0.026-0.002-0.040-0.002-0.114 0-0.217 0.043-0.296 0.113l0-0c-0.088 0.080-0.143 0.194-0.143 0.322 0 0.063 0.013 0.123 0.038 0.177l-0.001-0.003c0.051 0.112 0.145 0.197 0.26 0.235l0.003 0.001c0.058 0.019 0.12 0.026 0.18 0.020h0.499v2.337c-0.002 0.016-0.015 0.028-0.032 0.028-0 0-0 0-0 0v0h-10.285c-0 0-0 0-0 0-0.016 0-0.030-0.012-0.032-0.028l-0-0v-2.337h7.968c0.112-0.011 0.211-0.062 0.282-0.14l0-0c0.071-0.077 0.115-0.18 0.115-0.293 0-0.226-0.175-0.412-0.396-0.429l-0.002-0h-8.849c-0.013 0.001-0.028 0.002-0.043 0.002-0.202 0-0.376-0.119-0.456-0.291l-0.001-0.003c-0.027-0.059-0.042-0.127-0.042-0.199 0-0.144 0.063-0.274 0.162-0.363l0-0c0.088-0.080 0.206-0.129 0.335-0.129 0.016 0 0.032 0.001 0.047 0.002l-0.002-0h0.913c0.112-0.011 0.211-0.062 0.282-0.14l0-0c0.071-0.076 0.114-0.179 0.114-0.292s-0.043-0.215-0.114-0.292l0 0c-0.072-0.078-0.17-0.129-0.281-0.14l-0.002-0h-0.805c-0.047-0.237-0.075-0.51-0.075-0.789 0-0.368 0.047-0.725 0.136-1.065l-0.006 0.029c0.163-0.629 0.447-1.176 0.828-1.642l-0.006 0.008c0.282 0.867 1.006 2.051 2.816 2.993 1.701 0.878 3.954 1.327 6.693 1.327h1.609c0.013-0.001 0.029-0.002 0.045-0.002 0.13 0 0.248 0.049 0.337 0.129l-0-0c0.1 0.090 0.162 0.22 0.163 0.365v0c0 0.144-0.063 0.274-0.162 0.364l-0 0c-0.088 0.080-0.206 0.129-0.335 0.129-0.016 0-0.033-0.001-0.049-0.002l0.002 0h0.029zM18.579 27.171l-0.322 0.493 0.007 0.005 0.315-0.498zM22.045 27.337l0.589-0.013-0.015-0.682-0.673 0.114 0.099 0.581zM22.085 29.151l0.15 0.571 0.45-0.119-0.011-0.465-0.589 0.013zM17.536 29.237l0.133-0.575h-0.003l-0.129 0.575zM15.291 28.235l0.382-0.449-0.001-0.001-0.38 0.45zM14.48 26.393l0.589 0.003v-0.003h-0.589zM14.762 25.103l-0.529-0.26v0.001l0.529 0.26zM16.57 23.561l0.209 0.551h0.003l-0.211-0.551zM22.362 23.411l0.588 0.046 0.039-0.498-0.485-0.12-0.142 0.572zM22.218 25.259l-0.11 0.58 0.647 0.122 0.051-0.656-0.588-0.046zM20.646 24.503c-0.885 0-1.629 0.094-2.172 0.333-0.278 0.122-0.531 0.295-0.716 0.538-0.175 0.23-0.281 0.521-0.281 0.837 0 0.005 0 0.011 0 0.016v-0.001h1.179c0-0.069 0.017-0.107 0.042-0.14 0.031-0.040 0.1-0.104 0.251-0.171 0.317-0.139 0.863-0.233 1.697-0.233v-1.18zM17.477 26.226c0 0.607 0.272 1.107 0.78 1.439l0.644-0.988c-0.175-0.114-0.245-0.243-0.245-0.451h-1.18zM18.264 27.669c0.481 0.305 1.117 0.42 1.829 0.42v-1.18c-0.615 0-0.989-0.104-1.199-0.237l-0.631 0.997zM20.093 28.089c0.7 0 1.383-0.057 2.051-0.17l-0.197-1.163c-0.6 0.102-1.217 0.153-1.853 0.153v1.179zM21.456 27.351l0.040 1.813 1.179-0.027-0.040-1.813-1.179 0.027zM21.936 28.581c-0.675 0.177-1.418 0.269-2.234 0.269v1.179c0.903 0 1.749-0.101 2.533-0.307l-0.3-1.14zM19.702 28.849c-0.833 0-1.507-0.065-2.033-0.187l-0.265 1.149c0.641 0.147 1.411 0.217 2.297 0.217v-1.179zM17.666 28.663c-0.563-0.127-0.969-0.26-1.24-0.393l-0.518 1.060c0.389 0.19 0.896 0.348 1.5 0.483l0.258-1.151zM16.426 28.27c-0.287-0.139-0.535-0.3-0.759-0.488l0.005 0.005-0.763 0.899c0.295 0.25 0.629 0.464 0.998 0.644l0.517-1.059zM15.673 27.785c-0.401-0.339-0.607-0.781-0.603-1.389l-1.179-0.006c-0.005 0.927 0.331 1.713 1.021 2.296l0.761-0.901zM15.069 26.393c0-0.397 0.078-0.736 0.222-1.031l-1.059-0.519c-0.232 0.473-0.343 0.993-0.343 1.549h1.179zM15.291 25.363c0.269-0.545 0.742-0.969 1.488-1.252l-0.418-1.102c-0.973 0.369-1.705 0.975-2.128 1.833l1.058 0.521zM16.781 24.111c0.784-0.301 1.66-0.456 2.633-0.456v-1.179c-1.1 0-2.12 0.175-3.055 0.534l0.423 1.101zM19.414 23.655c0.993 0 1.927 0.111 2.807 0.328l0.283-1.144c-0.909-0.231-1.952-0.363-3.026-0.363-0.022 0-0.045 0-0.067 0h0.003v1.179zM21.774 23.365l-0.144 1.849 1.176 0.091 0.144-1.848-1.176-0.092zM22.327 24.68c-0.613-0.117-1.175-0.178-1.681-0.178v1.18c0.415 0 0.901 0.050 1.462 0.156l0.22-1.158zM28.081 25.621l-0.003 0.59 0.599 0.003-0.007-0.599-0.589 0.007zM27.827 24.856l-0.401 0.432 0.005 0.005 0.396-0.437zM26.359 24.913l0.409 0.425 0.004-0.004-0.413-0.421zM26.002 25.61l-0.582-0.095-0.112 0.681 0.691 0.004 0.003-0.59zM30.337 28.754l0.356 0.469 0.212-0.16 0.020-0.265-0.588-0.044zM29.065 29.226l-0.127-0.576-0.003 0.001 0.13 0.575zM24.643 29.065l-0.201 0.554 0.005 0.002 0.197-0.556zM23.635 28.529l-0.366 0.462 0.007 0.005 0.359-0.467zM22.962 27.683l-0.529 0.261 0.001 0.003 0.527-0.264zM23.653 24.107v0zM29.042 23.468l0.236-0.54-0.006-0.003-0.23 0.543zM30.395 24.712l-0.531 0.258 0.001 0.003 0.529-0.261zM30.625 25.743l0.588 0.043 0.001-0.021v-0.021h-0.589zM30.556 26.693l-0.003 0.589 0.551 0.003 0.040-0.549-0.588-0.043zM25.887 26.669l0.003-0.589-0.769-0.004 0.196 0.744 0.57-0.151zM26.555 27.493l-0.29 0.513 0.002 0.001 0.288-0.515zM30.136 27.291v-0.589h-0.118l-0.109 0.045 0.227 0.544zM30.447 27.291l0.588 0.044 0.047-0.633h-0.635v0.589zM28.67 25.615c-0.005-0.427-0.103-0.884-0.447-1.196l-0.793 0.873c-0.007-0.007 0.007 0.001 0.024 0.052 0.017 0.054 0.035 0.144 0.036 0.283l1.179-0.013zM28.228 24.424c-0.309-0.287-0.715-0.382-1.115-0.382v1.179c0.229 0 0.3 0.055 0.313 0.067l0.802-0.863zM27.113 24.042c-0.439 0-0.847 0.137-1.167 0.45l0.825 0.843c0.065-0.063 0.159-0.113 0.342-0.113v-1.18zM25.951 24.489c-0.276 0.266-0.468 0.62-0.529 1.016l-0.001 0.010 1.163 0.191c0.019-0.145 0.086-0.272 0.184-0.366l0-0-0.817-0.851zM25.999 26.2l2.079 0.011 0.007-1.179-2.079-0.011-0.007 1.179zM29.981 28.284c-0.129 0.098-0.445 0.235-1.043 0.367l0.253 1.151c0.623-0.137 1.155-0.315 1.502-0.579l-0.712-0.94zM28.935 28.651c-0.571 0.129-1.12 0.193-1.649 0.193v1.179c0.623 0 1.26-0.075 1.909-0.222l-0.26-1.15zM27.286 28.844c-0.556 0-1.013-0.027-1.378-0.076l-0.157 1.169c0.433 0.059 0.947 0.087 1.535 0.087v-1.18zM25.908 28.768c-0.401-0.055-0.762-0.146-1.106-0.271l0.037 0.012-0.393 1.112c0.375 0.138 0.815 0.248 1.27 0.312l0.034 0.004 0.157-1.169zM24.844 28.511c-0.325-0.114-0.606-0.266-0.858-0.455l0.008 0.006-0.717 0.936c0.336 0.257 0.727 0.463 1.165 0.621l0.402-1.108zM24.001 28.067c-0.214-0.174-0.387-0.39-0.507-0.636l-0.005-0.011-1.055 0.527c0.205 0.416 0.487 0.764 0.829 1.041l0.006 0.005 0.732-0.925zM23.49 27.421c-0.124-0.251-0.198-0.573-0.198-0.988h-1.179c0 0.553 0.099 1.063 0.32 1.511l1.057-0.523zM23.292 26.433c0-0.415 0.075-0.781 0.217-1.107l-1.082-0.469c-0.198 0.453-0.314 0.982-0.314 1.537 0 0.014 0 0.028 0 0.041l-0-0.002h1.179zM23.509 25.327c0.149-0.343 0.331-0.596 0.536-0.779l-0.785-0.881c-0.355 0.315-0.629 0.719-0.833 1.19l1.081 0.469zM24.045 24.547c0.633-0.565 1.6-0.893 2.993-0.893v-1.179c-1.563 0-2.853 0.367-3.778 1.191l0.785 0.88zM27.039 23.655c0.625 0 1.214 0.119 1.773 0.357l0.46-1.086c-0.653-0.284-1.413-0.449-2.212-0.449-0.008 0-0.015 0-0.023 0h0.001v1.179zM28.806 24.009c0.522 0.228 0.859 0.551 1.059 0.961l1.060-0.516c-0.337-0.695-0.902-1.201-1.647-1.527l-0.472 1.081zM29.866 24.973c0.111 0.223 0.17 0.476 0.17 0.769h1.179c0-0.459-0.094-0.893-0.291-1.292l-1.057 0.522zM30.037 25.7l-0.069 0.95 1.176 0.085 0.069-0.95-1.176-0.085zM30.559 26.103l-4.67-0.023-0.005 1.179 4.669 0.023 0.006-1.179zM25.317 26.82c0.138 0.523 0.475 0.919 0.948 1.187l0.58-1.027c-0.233-0.132-0.341-0.285-0.388-0.461l-1.14 0.3zM26.267 28.007c0.479 0.267 1.077 0.375 1.745 0.375v-1.179c-0.56 0-0.933-0.093-1.169-0.225l-0.576 1.029zM28.011 28.382c0.717 0 1.505-0.194 2.351-0.547l-0.453-1.088c-0.758 0.315-1.387 0.455-1.898 0.455v1.179zM30.136 27.881h0.311v-1.179h-0.311v1.179zM29.859 27.247l-0.109 1.463 1.176 0.088 0.109-1.463-1.176-0.088z"></path>
</svg>
