<!-- Generated by IcoMoon.io -->
<svg version="1.1" xmlns="http://www.w3.org/2000/svg" width="32" height="32" viewBox="0 0 32 32">
<title>telegram-focus</title>
<path fill="#f8d24e" d="M32 16c0 8.837-7.163 16-16 16s-16-7.163-16-16c0-8.837 7.163-16 16-16s16 7.163 16 16z"></path>
<path fill="#fff" d="M12.866 18.375l-0.317 4.169c0.454 0 0.651-0.182 0.887-0.4l2.13-1.901 4.415 3.017c0.809 0.422 1.381 0.2 1.598-0.695l2.898-12.673c0.257-1.117-0.432-1.554-1.221-1.28l-17.032 6.086c-1.162 0.421-1.145 1.026-0.197 1.3l4.355 1.264 10.115-5.906c0.475-0.294 0.908-0.132 0.552 0.163l-8.182 6.856z"></path>
</svg>
