<!-- Generated by IcoMoon.io -->
<svg version="1.1" xmlns="http://www.w3.org/2000/svg" width="32" height="32" viewBox="0 0 32 32">
<title>telegram-mob</title>
<path fill="#f8d24e" d="M31.258 16.43c0 8.571-6.946 15.519-15.515 15.519s-15.515-6.948-15.515-15.519c0-8.571 6.946-15.519 15.515-15.519s15.515 6.948 15.515 15.519z"></path>
<path fill="#84a178" d="M12.705 18.735l-0.307 4.044c0.44 0 0.63-0.177 0.86-0.39l2.065-1.842 4.281 2.927c0.785 0.407 1.338 0.194 1.55-0.675l2.81-12.291c0.25-1.084-0.419-1.508-1.183-1.241l-16.517 5.902c-1.128 0.407-1.11 0.995-0.192 1.261l4.223 1.226 9.807-5.729c0.462-0.285 0.882-0.128 0.536 0.158l-7.934 6.65z"></path>
</svg>
