<!-- Generated by IcoMoon.io -->
<svg version="1.1" xmlns="http://www.w3.org/2000/svg" width="32" height="32" viewBox="0 0 32 32">
<title>weight-in-yellow-circle</title>
<path fill="#f8d24e" d="M16 0c8.837 0 16 7.163 16 16s-7.163 16-16 16c-8.837 0-16-7.163-16-16s7.163-16 16-16z"></path>
<path fill="#131313" d="M14.688 4.874c-2.861 0.424-5.218 2.013-6.085 4.093-0.276 0.657-0.351 1.061-0.351 1.853 0.005 0.585 0.026 0.802 0.117 1.118 0.186 0.621 0.319 0.936 0.595 1.381l0.256 0.414-0.288 0.352c-2.271 2.826-2.521 6.8-0.627 9.931 0.707 1.175 1.862 2.329 2.989 3.002l0.335 0.196 9.175-0.077 0.218-0.119c0.761-0.429 1.835-1.387 2.436-2.163 0.87-1.13 1.486-2.5 1.737-3.993l0.007-0.053c0.085-0.533 0.085-2.112-0.005-2.614-0.271-1.547-0.851-2.872-1.766-4.047-0.175-0.223-0.314-0.409-0.314-0.424 0-0.010 0.096-0.171 0.207-0.352 0.26-0.414 0.495-0.947 0.622-1.412 0.143-0.518 0.143-1.811 0-2.329-0.511-1.837-2.042-3.369-4.207-4.212-0.607-0.238-1.644-0.492-2.314-0.574-0.622-0.072-2.159-0.058-2.739 0.031zM17.926 5.717c2.84 0.554 4.92 2.292 5.303 4.435 0.085 0.481 0.032 1.299-0.111 1.754-0.144 0.445-0.41 0.968-0.723 1.412-0.128 0.181-0.234 0.388-0.234 0.456s0.111 0.243 0.271 0.419c1.329 1.475 2.031 3.322 2.031 5.32-0.005 2.272-0.877 4.264-2.558 5.827-0.287 0.269-0.697 0.605-0.915 0.75l-0.399 0.269-8.792 0.036-0.34-0.218c-1.234-0.801-2.346-2.126-2.963-3.534-0.776-1.78-0.856-3.845-0.223-5.697 0.335-0.963 0.782-1.749 1.462-2.577 0.277-0.332 0.404-0.528 0.404-0.621 0-0.078-0.138-0.332-0.319-0.595-0.638-0.927-0.899-1.956-0.744-2.929 0.16-0.983 0.606-1.791 1.431-2.593 1.074-1.040 2.574-1.728 4.335-1.987 0.728-0.109 2.34-0.067 3.085 0.072z"></path>
<path fill="#131313" d="M14.927 6.628c-2.18 0.357-3.888 1.568-4.446 3.157-0.128 0.357-0.149 0.497-0.149 1.009s0.021 0.652 0.149 1.009c0.079 0.228 0.228 0.544 0.33 0.704 0.276 0.445 0.399 0.461 0.947 0.129 0.788-0.485 1.705-0.857 2.683-1.062l0.056-0.010c0.659-0.134 1.925-0.186 2.643-0.103 1.122 0.129 2.34 0.532 3.313 1.107 0.276 0.16 0.559 0.294 0.627 0.294 0.404 0 0.92-1.164 0.92-2.069 0-2.013-1.925-3.736-4.653-4.166-0.58-0.093-1.862-0.093-2.42 0zM17.56 7.456c0.915 0.196 1.755 0.57 2.388 1.061 0.851 0.657 1.308 1.573 1.233 2.458-0.026 0.352-0.159 0.828-0.239 0.88-0.022 0.010-0.32-0.114-0.66-0.279-0.667-0.327-1.443-0.6-2.254-0.779l-0.070-0.013c-0.495-0.103-0.702-0.119-1.808-0.114-1.091 0-1.319 0.016-1.792 0.114-0.819 0.176-1.458 0.394-2.245 0.766-0.792 0.378-0.75 0.383-0.893-0.083-0.186-0.605-0.069-1.407 0.292-2.013 0.192-0.321 0.718-0.854 1.101-1.117 0.729-0.502 1.367-0.73 2.739-0.979 0.282-0.051 1.846 0.021 2.207 0.099zM16.693 14.131c-0.149 0.187-0.149 0.363 0.005 0.513 0.101 0.099 0.202 0.124 0.57 0.15 0.745 0.054 1.428 0.274 2.027 0.623l-0.022-0.012c0.436 0.259 1.101 0.885 1.399 1.335 0.442 0.646 0.744 1.573 0.744 2.257 0 0.238 0.022 0.31 0.133 0.413 0.17 0.171 0.394 0.171 0.559 0 0.117-0.119 0.122-0.15 0.090-0.657-0.149-2.505-2.292-4.595-4.856-4.736l-0.532-0.031-0.116 0.145z"></path>
</svg>
